<svg width="57" height="57" viewBox="0 0 57 57" fill="none" xmlns="http://www.w3.org/2000/svg">
<g filter="url(#filter0_d)">
<path d="M44.6316 11.0401C41.7105 8.11727 38.2715 6.10513 34.3135 5.00321C30.355 3.90133 26.3534 3.89254 22.3061 4.97702C18.2592 6.06138 14.797 8.0704 11.9204 11.0034C9.04336 13.9367 7.07123 17.3988 6.00291 21.3906C4.93487 25.3821 4.9492 29.4246 6.04598 33.5178C7.36346 38.4347 9.96627 42.4762 13.8554 45.643C17.7443 48.8103 22.137 50.546 27.0331 50.8505C27.5823 50.8085 27.9508 50.6358 28.1397 50.3338C28.3285 50.0315 28.3755 49.7037 28.2811 49.3516C28.2654 49.2928 28.1187 48.7655 27.8413 47.769C27.5637 46.7725 27.3254 45.9022 27.1261 45.1584L26.4894 45.4544C26.0846 45.6474 25.5563 45.8248 24.905 45.9892C24.2541 46.1538 23.5626 46.2654 22.8314 46.3243C22.1002 46.3845 21.373 46.2645 20.6493 45.965C19.926 45.6655 19.3386 45.1771 18.8875 44.5007L18.4159 43.9024C18.1017 43.5042 17.663 43.0858 17.0998 42.6493C16.5364 42.2123 16.0157 41.9532 15.5373 41.8715L15.2945 41.7787C15.1327 41.7172 14.9754 41.6328 14.8224 41.527C14.6695 41.4212 14.5458 41.3074 14.4509 41.1857C14.3559 41.0639 14.374 40.9383 14.5054 40.8083C14.6369 40.6784 14.9057 40.5603 15.3125 40.4513L15.9167 40.3835C16.325 40.3583 16.8669 40.4644 17.5434 40.7033C18.2194 40.9419 18.8253 41.3253 19.3611 41.8532C20.022 42.5371 20.7228 43.0054 21.4652 43.2579C22.2072 43.5105 22.8978 43.5508 23.5367 43.3796C24.1755 43.2085 24.7142 43.0116 25.1529 42.7896C25.5911 42.5672 25.9873 42.3032 26.3417 41.9985C26.2814 41.5368 26.2651 41.101 26.2929 40.691C26.351 39.8303 25.6035 38.7848 24.7421 38.8328C24.4306 38.8502 24.1282 38.859 23.835 38.8594C22.8912 38.8602 21.8788 38.7223 20.798 38.4445C19.7169 38.1676 18.7616 37.72 17.9324 37.1028C17.1029 36.4853 16.3188 35.5929 15.5811 34.4263C14.8431 33.2592 14.251 31.8435 13.8049 30.1787C13.1698 27.8082 13.3943 25.5861 14.4778 23.5112C13.2837 21.921 12.816 19.9051 13.075 17.4634C13.5893 17.1365 14.4575 17.0458 15.6791 17.1906C16.901 17.3356 17.8103 17.4967 18.4075 17.6722C19.0047 17.8476 19.487 18.0025 19.8545 18.1346C21.5192 17.1429 23.3096 16.3903 25.2264 15.8767C27.1432 15.3631 29.0705 15.1195 31.0081 15.146L31.9229 14.1455C32.5516 13.4729 33.3274 12.8032 34.248 12.1366C35.1693 11.47 35.9252 11.1519 36.5149 11.1831C37.9789 13.1631 38.5919 15.1401 38.3526 17.1143C40.3283 18.3694 41.6343 20.1821 42.2693 22.552C42.7154 24.2169 42.911 25.7438 42.8586 27.1331C42.8058 28.5227 42.5683 29.6878 42.1466 30.6304C41.7242 31.5731 41.1144 32.4346 40.3171 33.2147C39.5196 33.9953 38.7115 34.621 37.8937 35.0923C37.6557 35.2294 37.407 35.3641 37.1476 35.4963C36.3708 35.8922 36.2488 37.2106 36.7283 37.9388C37.1283 38.5465 37.4477 39.2958 37.6864 40.1867L39.3474 46.3855C39.4417 46.7376 39.6416 46.9992 39.9469 47.1692C40.2517 47.3389 40.6524 47.3055 41.149 47.0671C45.2375 44.3555 48.1738 40.6559 49.958 35.9685C51.7419 31.2815 51.9758 26.48 50.6583 21.5631C49.5606 17.4707 47.5514 13.9631 44.6316 11.0401Z" fill="black"/>
<path d="M45.3389 10.3332L45.3391 10.3333C48.386 13.3836 50.4823 17.0468 51.6242 21.3041L51.6242 21.3043C52.9953 26.4211 52.7524 31.4377 50.8926 36.3242L49.958 35.9685L50.8925 36.3243C49.0359 41.2021 45.9684 45.0707 41.7017 47.9005L41.6441 47.9387L41.5817 47.9686C40.9642 48.2651 40.1823 48.4447 39.4605 48.043L39.4603 48.0429C38.9069 47.7346 38.5423 47.2445 38.3815 46.6443L36.7205 40.4455C36.5024 39.6316 36.2209 38.9867 35.893 38.4887C35.4942 37.8829 35.3816 37.1139 35.477 36.4505C35.5712 35.796 35.9107 35.0044 36.6935 34.6054C36.9385 34.4805 37.1721 34.3539 37.3944 34.2259C38.1278 33.8032 38.8699 33.232 39.6175 32.5001L39.6177 32.4999C40.3326 31.8005 40.8668 31.041 41.234 30.2215C41.5887 29.4284 41.8097 28.3982 41.8593 27.0954C41.9072 25.8261 41.7294 24.4007 41.3034 22.8108C40.7298 20.6702 39.5698 19.0723 37.8164 17.9583L37.284 17.6201L37.3599 16.9939C37.5436 15.4778 37.1442 13.9089 36.0493 12.26C35.7663 12.3578 35.3674 12.561 34.8342 12.9468C33.9556 13.5829 33.2323 14.2097 32.6571 14.8244L31.7461 15.8208L31.4432 16.152L30.9944 16.1459C29.151 16.1207 27.3153 16.3522 25.4852 16.8426C23.6552 17.333 21.9501 18.0502 20.3663 18.9937L19.9607 19.2353L19.5163 19.0757C19.1738 18.9526 18.7117 18.8038 18.1257 18.6316L18.1255 18.6316C17.6112 18.4804 16.7695 18.327 15.5614 18.1837L45.3389 10.3332ZM45.3389 10.3332C42.2968 7.28922 38.7067 5.18827 34.5817 4.03985L34.5817 4.03984M45.3389 10.3332L34.5817 4.03984M34.5817 4.03984C30.4473 2.88902 26.2638 2.88128 22.0473 4.0111C17.8313 5.14077 14.2109 7.23988 11.2065 10.3032C8.20799 13.3603 6.14951 16.9749 5.03691 21.1321L5.0369 21.1321M34.5817 4.03984L5.0369 21.1321M5.0369 21.1321C3.92232 25.2976 3.93909 29.5185 5.08006 33.7767C6.45107 38.8934 9.16919 43.1167 13.224 46.4185C17.2709 49.7144 21.8616 51.5308 26.971 51.8486L27.0401 51.8529M5.0369 21.1321L27.0401 51.8529M27.0401 51.8529L27.1092 51.8476M27.0401 51.8529L27.1092 51.8476M27.1092 51.8476C27.7995 51.7949 28.5547 51.5562 28.9875 50.864L28.9878 50.8637M27.1092 51.8476L28.9878 50.8637M28.9878 50.8637C29.3278 50.3194 29.4111 49.705 29.247 49.0928C29.2296 49.0278 29.0806 48.4921 28.8047 47.5008L28.8046 47.5005M28.9878 50.8637L28.8046 47.5005M28.8046 47.5005C28.5276 46.5065 28.2903 45.6394 28.0921 44.8996L27.784 43.75M28.8046 47.5005L27.784 43.75M27.784 43.75L26.7047 44.2516M27.784 43.75L26.7047 44.2516M26.7047 44.2516L26.068 44.5475L26.068 44.5475M26.7047 44.2516L26.068 44.5475M26.068 44.5475L26.0589 44.5518M26.068 44.5475L26.0589 44.5518M26.0589 44.5518C25.7364 44.7056 25.2777 44.8638 24.6603 45.0196L24.6599 45.0197M26.0589 44.5518L24.6599 45.0197M24.6599 45.0197C24.068 45.1694 23.4319 45.2727 22.7511 45.3276L22.7494 45.3277M24.6599 45.0197L22.7494 45.3277M22.7494 45.3277C22.1876 45.3739 21.6192 45.2841 21.0319 45.0411C20.4991 44.8205 20.0652 44.4643 19.7195 43.9459L19.6975 43.9128M22.7494 45.3277L19.6975 43.9128M19.6975 43.9128L19.6729 43.8817M19.6975 43.9128L19.6729 43.8817M19.6729 43.8817L19.2013 43.2834L19.201 43.2831M19.6729 43.8817L19.201 43.2831M19.201 43.2831C18.8269 42.8089 18.332 42.3417 17.7397 41.8801M19.201 43.2831L17.7397 41.8801M17.7397 41.8801C18.0633 42.0542 18.3668 42.2788 18.6512 42.5576C19.3965 43.3266 20.2248 43.8922 21.1429 44.2045C21.143 44.2046 21.1431 44.2046 21.1433 44.2046L21.4652 43.2579C22.2072 43.5105 22.8978 43.5508 23.5367 43.3796L17.7397 41.8801ZM17.9324 37.1028C18.7616 37.72 19.7169 38.1676 20.798 38.4445L23.8342 37.8594C22.9879 37.8601 22.06 37.7363 21.0469 37.476L21.0461 37.4758C20.0812 37.2286 19.2465 36.8343 18.5294 36.3006M17.9324 37.1028L18.5295 36.3007C18.5295 36.3007 18.5294 36.3006 18.5294 36.3006M17.9324 37.1028L18.5294 36.3006M17.9324 37.1028L18.5294 36.3006M18.5294 36.3006C17.8252 35.7763 17.119 34.9873 16.4263 33.8918L16.4263 33.8918C15.7536 32.8281 15.197 31.5103 14.7708 29.9199C14.1971 27.7787 14.4026 25.8154 15.3642 23.9741L15.6562 23.415L15.2774 22.9107C14.3607 21.6899 13.9151 20.1357 14.021 18.1716C14.3392 18.1152 14.8317 18.0972 15.5613 18.1837L18.5294 36.3006Z" stroke="white" stroke-width="2"/>
</g>
<defs>
<filter id="filter0_d" x="0.212402" y="0.170166" width="56.285" height="56.685" filterUnits="userSpaceOnUse" color-interpolation-filters="sRGB">
<feFlood flood-opacity="0" result="BackgroundImageFix"/>
<feColorMatrix in="SourceAlpha" type="matrix" values="0 0 0 0 0 0 0 0 0 0 0 0 0 0 0 0 0 0 127 0"/>
<feOffset dy="1"/>
<feGaussianBlur stdDeviation="1.5"/>
<feColorMatrix type="matrix" values="0 0 0 0 0 0 0 0 0 0 0 0 0 0 0 0 0 0 0.16 0"/>
<feBlend mode="normal" in2="BackgroundImageFix" result="effect1_dropShadow"/>
<feBlend mode="normal" in="SourceGraphic" in2="effect1_dropShadow" result="shape"/>
</filter>
</defs>
</svg>
